# 3ds Max Wavefront OBJ Exporter v0.97b - (c)2007 guruware
# File Created: 08.01.2013 12:58:32

mtllib ShipLarge.mtl

#
# object Box01
#

v  -20.0000 0.0000 75.0000
v  20.0000 0.0000 75.0000
v  -20.0000 0.0000 -75.0000
v  20.0000 0.0000 -75.0000
v  -20.0000 10.0000 75.0000
v  20.0000 10.0000 75.0000
v  20.0000 10.0000 -75.0000
v  0.0000 0.0000 -103.7529
v  0.0000 10.0000 -103.7529
v  -11.9266 -14.3518 75.0000
v  11.9266 -14.3518 75.0000
v  -11.9266 -14.3518 -48.1631
v  11.9266 -14.3518 -48.1631
v  -0.0000 -14.3518 -62.4000
v  19.5167 0.0000 72.6861
v  19.5167 0.0000 -73.6890
v  -20.0000 10.0000 -75.0000
v  -19.5167 0.0000 72.6861
v  -19.5167 0.0000 -73.6890
v  -20.0000 0.0000 105.6342
v  20.0000 0.0000 105.6342
v  -20.0000 10.0000 105.6342
v  20.0000 10.0000 105.6342
v  -11.9266 -14.3518 105.6342
v  11.9266 -14.3518 105.6342
v  -20.0000 3.2198 111.3004
v  -20.0000 10.0000 111.3004
v  -11.9266 -2.6981 111.3004
v  20.0000 3.2198 111.3004
v  20.0000 10.0000 111.3004
v  11.9266 -2.6981 111.3004
v  -14.2516 10.0000 80.4705
v  14.2516 10.0000 80.4705
v  -14.2516 10.0000 104.1904
v  14.2516 10.0000 104.1904
v  -14.2516 26.5479 80.4705
v  14.2516 26.5479 80.4705
v  -14.2516 26.5479 104.1904
v  14.2516 26.5479 104.1904
# 39 vertices

vn 1.0000 0.0000 -0.0000
vn 1.0000 0.0000 -0.0000
vn 1.0000 0.0000 -0.0000
vn 1.0000 0.0000 -0.0000
vn 1.0000 0.0000 -0.0000
vn 1.0000 0.0000 -0.0000
vn -1.0000 0.0000 -0.0000
vn -1.0000 0.0000 -0.0000
vn -1.0000 0.0000 -0.0000
vn -1.0000 0.0000 -0.0000
vn -1.0000 0.0000 -0.0000
vn -1.0000 0.0000 -0.0000
vn 0.8209 0.0000 -0.5710
vn 0.8209 0.0000 -0.5710
vn 0.8209 0.0000 -0.5710
vn 0.8209 0.0000 -0.5710
vn 0.8209 0.0000 -0.5710
vn 0.8209 0.0000 -0.5710
vn -0.8209 0.0000 -0.5710
vn -0.8209 0.0000 -0.5710
vn -0.8209 0.0000 -0.5710
vn -0.8209 0.0000 -0.5710
vn -0.8209 0.0000 -0.5710
vn -0.8209 0.0000 -0.5710
vn -0.8716 -0.4903 0.0000
vn -0.8716 -0.4903 0.0000
vn -0.8716 -0.4903 0.0000
vn -0.8716 -0.4903 -0.0000
vn -0.8716 -0.4903 -0.0000
vn -0.8716 -0.4903 -0.0000
vn 0.8716 -0.4903 0.0000
vn 0.8716 -0.4903 0.0000
vn 0.8716 -0.4903 0.0000
vn 0.8716 -0.4903 -0.0000
vn 0.8716 -0.4903 -0.0000
vn 0.8716 -0.4903 -0.0000
vn -0.4005 -0.8527 -0.3355
vn -0.4005 -0.8527 -0.3355
vn -0.4005 -0.8527 -0.3355
vn -0.4264 -0.8545 -0.2966
vn -0.4264 -0.8545 -0.2966
vn -0.4264 -0.8545 -0.2966
vn 0.3645 -0.8797 -0.3053
vn 0.3645 -0.8797 -0.3053
vn 0.3645 -0.8797 -0.3053
vn 0.4492 -0.8370 -0.3125
vn 0.4492 -0.8370 -0.3125
vn 0.4492 -0.8370 -0.3125
vn 0.0000 -1.0000 0.0000
vn 0.0000 -1.0000 0.0000
vn 0.0000 -1.0000 0.0000
vn 0.0000 -1.0000 0.0000
vn 0.0000 -1.0000 0.0000
vn 0.0000 -1.0000 0.0000
vn 0.0000 -1.0000 -0.0000
vn 0.0000 -1.0000 -0.0000
vn 0.0000 -1.0000 -0.0000
vn 0.0000 0.2254 -0.9743
vn 0.0000 0.2254 -0.9743
vn 0.0000 0.2254 -0.9743
vn 0.0000 0.2254 -0.9743
vn 0.0000 0.2254 -0.9743
vn 0.0000 0.2254 -0.9743
vn -0.9988 0.0483 -0.0000
vn -0.9988 0.0483 -0.0000
vn -0.9988 0.0483 -0.0000
vn -0.9988 0.0483 -0.0000
vn -0.9988 0.0483 -0.0000
vn -0.9988 0.0483 -0.0000
vn 0.9988 0.0483 -0.0000
vn 0.9988 0.0483 -0.0000
vn 0.9988 0.0483 -0.0000
vn 0.9988 0.0483 -0.0000
vn 0.9988 0.0483 -0.0000
vn 0.9988 0.0483 -0.0000
vn 0.0000 1.0000 -0.0000
vn 0.0000 1.0000 -0.0000
vn 0.0000 1.0000 -0.0000
vn 0.0000 0.1300 0.9915
vn 0.0000 0.1300 0.9915
vn 0.0000 0.1300 0.9915
vn 0.0000 0.1300 0.9915
vn 0.0000 0.1300 0.9915
vn 0.0000 0.1300 0.9915
vn 0.0000 1.0000 -0.0000
vn 0.0000 1.0000 -0.0000
vn 0.0000 1.0000 -0.0000
vn 0.0000 1.0000 -0.0000
vn 0.0000 1.0000 -0.0000
vn 0.0000 1.0000 -0.0000
vn 1.0000 0.0000 -0.0000
vn 1.0000 0.0000 -0.0000
vn 1.0000 0.0000 -0.0000
vn 1.0000 0.0000 -0.0000
vn 1.0000 0.0000 -0.0000
vn 1.0000 0.0000 -0.0000
vn -1.0000 0.0000 -0.0000
vn -1.0000 0.0000 -0.0000
vn -1.0000 0.0000 -0.0000
vn -1.0000 0.0000 -0.0000
vn -1.0000 0.0000 -0.0000
vn -1.0000 0.0000 -0.0000
vn -0.8716 -0.4903 -0.0000
vn -0.8716 -0.4903 -0.0000
vn -0.8716 -0.4903 -0.0000
vn -0.8716 -0.4903 -0.0000
vn -0.8716 -0.4903 -0.0000
vn -0.8716 -0.4903 -0.0000
vn 0.8716 -0.4903 -0.0000
vn 0.8716 -0.4903 -0.0000
vn 0.8716 -0.4903 -0.0000
vn 0.8716 -0.4903 -0.0000
vn 0.8716 -0.4903 -0.0000
vn 0.8716 -0.4903 -0.0000
vn 0.0000 -1.0000 -0.0000
vn 0.0000 -1.0000 -0.0000
vn 0.0000 -1.0000 -0.0000
vn 0.0000 -1.0000 -0.0000
vn 0.0000 -1.0000 -0.0000
vn 0.0000 -1.0000 -0.0000
vn 0.0000 1.0000 -0.0000
vn 0.0000 1.0000 -0.0000
vn 0.0000 1.0000 -0.0000
vn 0.0000 1.0000 -0.0000
vn 0.0000 1.0000 -0.0000
vn 0.0000 1.0000 -0.0000
vn 1.0000 0.0000 -0.0000
vn 1.0000 0.0000 -0.0000
vn 1.0000 0.0000 -0.0000
vn 1.0000 0.0000 -0.0000
vn 1.0000 0.0000 -0.0000
vn 1.0000 0.0000 -0.0000
vn -1.0000 0.0000 -0.0000
vn -1.0000 0.0000 -0.0000
vn -1.0000 0.0000 -0.0000
vn -1.0000 0.0000 -0.0000
vn -1.0000 0.0000 -0.0000
vn -1.0000 0.0000 -0.0000
vn -0.5374 -0.7332 0.4166
vn -0.5374 -0.7332 0.4166
vn -0.5374 -0.7332 0.4166
vn -0.6137 -0.3452 0.7101
vn -0.6137 -0.3452 0.7101
vn -0.6137 -0.3452 0.7101
vn 0.3052 -0.4164 0.8564
vn 0.3052 -0.4164 0.8564
vn 0.3052 -0.4164 0.8564
vn 0.8396 -0.4723 0.2684
vn 0.8396 -0.4723 0.2684
vn 0.8396 -0.4723 0.2684
vn 0.0000 -0.4373 0.8993
vn 0.0000 -0.4373 0.8993
vn 0.0000 -0.4373 0.8993
vn 0.0000 -0.4373 0.8993
vn 0.0000 -0.4373 0.8993
vn 0.0000 -0.4373 0.8993
vn 0.0000 0.0000 1.0000
vn 0.0000 0.0000 1.0000
vn 0.0000 0.0000 1.0000
vn 0.0000 0.0000 1.0000
vn 0.0000 0.0000 1.0000
vn 0.0000 0.0000 1.0000
vn 0.0000 0.0000 1.0000
vn 0.0000 0.0000 1.0000
vn 0.0000 0.0000 1.0000
vn 0.0000 0.0000 1.0000
vn 0.0000 0.0000 1.0000
vn 0.0000 0.0000 1.0000
vn 0.0000 1.0000 -0.0000
vn 0.0000 1.0000 -0.0000
vn 0.0000 1.0000 -0.0000
vn 0.0000 1.0000 -0.0000
vn 0.0000 1.0000 -0.0000
vn 0.0000 1.0000 -0.0000
vn 0.0000 1.0000 -0.0000
vn 0.0000 1.0000 -0.0000
vn 0.0000 1.0000 -0.0000
vn 0.0000 1.0000 -0.0000
vn 0.0000 1.0000 -0.0000
vn 0.0000 1.0000 -0.0000
vn 0.0000 1.0000 -0.0000
vn 0.0000 1.0000 -0.0000
vn 0.0000 1.0000 -0.0000
vn 0.0000 1.0000 -0.0000
vn 0.0000 1.0000 -0.0000
vn 0.0000 1.0000 -0.0000
vn 0.0000 1.0000 -0.0000
vn 0.0000 1.0000 -0.0000
vn 0.0000 1.0000 -0.0000
vn 0.0000 1.0000 -0.0000
vn 0.0000 1.0000 -0.0000
vn 0.0000 1.0000 -0.0000
vn 0.0000 0.0000 -1.0000
vn 0.0000 0.0000 -1.0000
vn 0.0000 0.0000 -1.0000
vn 0.0000 0.0000 -1.0000
vn 0.0000 0.0000 -1.0000
vn 0.0000 0.0000 -1.0000
vn -1.0000 0.0000 -0.0000
vn -1.0000 0.0000 -0.0000
vn -1.0000 0.0000 -0.0000
vn -1.0000 0.0000 -0.0000
vn -1.0000 0.0000 -0.0000
vn -1.0000 0.0000 -0.0000
vn 1.0000 0.0000 -0.0000
vn 1.0000 0.0000 -0.0000
vn 1.0000 0.0000 -0.0000
vn 1.0000 0.0000 -0.0000
vn 1.0000 0.0000 -0.0000
vn 1.0000 0.0000 -0.0000
vn 0.0000 0.0000 1.0000
vn 0.0000 0.0000 1.0000
vn 0.0000 0.0000 1.0000
vn 0.0000 0.0000 1.0000
vn 0.0000 0.0000 1.0000
vn 0.0000 0.0000 1.0000
vn 0.0000 1.0000 -0.0000
vn 0.0000 1.0000 -0.0000
vn 0.0000 1.0000 -0.0000
vn 0.0000 1.0000 -0.0000
vn 0.0000 1.0000 -0.0000
vn 0.0000 1.0000 -0.0000
# 222 vertex normals

vt 1.0000 1.0000 0.0000
vt 0.0000 0.0000 0.0000
vt 0.0000 0.0000 0.0000
vt 1.0000 0.0000 0.0000
vt 0.0000 0.0000 0.0000
vt 0.0000 0.0000 0.0000
vt 1.0000 1.0000 0.0000
vt 1.0000 1.0000 0.0000
vt 1.0000 1.0000 0.0000
vt 0.0000 0.0000 0.0000
vt 0.0000 0.0000 0.0000
vt 1.0000 0.0000 0.0000
vt 1.0000 1.0000 0.0000
vt 1.0000 0.0000 0.0000
vt 0.0000 0.0000 0.0000
vt 0.0000 0.0000 0.0000
vt 1.0000 0.0000 0.0000
vt 1.0000 1.0000 0.0000
vt 1.0000 0.0000 0.0000
vt 0.8287 0.9130 0.0005
vt 0.1337 0.9130 0.0005
vt 0.1337 0.9995 0.0005
vt 0.8287 0.9995 0.0005
vt 0.1337 0.9130 0.9995
vt 0.8287 0.9130 0.9995
vt 0.8287 0.9995 0.9995
vt 0.1337 0.9995 0.9995
vt 0.0005 0.9130 0.5000
vt 0.0005 0.9995 0.5000
vt 0.2581 0.7887 0.7979
vt 0.8287 0.7887 0.7979
vt 0.8287 0.7887 0.2021
vt 0.2581 0.7887 0.2021
vt 0.1921 0.7887 0.5000
vt 0.9706 0.9995 0.0005
vt 0.9706 0.9130 0.0005
vt 0.9706 0.9130 0.9995
vt 0.9706 0.9995 0.9995
vt 0.9706 0.7887 0.7979
vt 0.9706 0.7887 0.2021
vt 0.9969 0.9995 0.0005
vt 0.9969 0.9408 0.0005
vt 0.9969 0.9408 0.9995
vt 0.9969 0.9995 0.9995
vt 0.9969 0.8896 0.7979
vt 0.9969 0.8896 0.2021
vt 0.9163 0.0352 0.0000
vt 0.9973 0.0352 0.0000
vt 0.9973 0.0352 0.0000
vt 0.9973 0.0352 0.0000
vt 0.9973 0.0352 0.0000
vt 0.9163 0.0352 0.0000
vt 0.9973 0.0352 0.0000
vt 0.9163 0.0352 0.0000
vt 0.9973 0.0352 0.0000
vt 0.9973 0.0352 0.0000
vt 0.9163 0.0352 0.0000
vt 0.9271 0.0351 0.0005
vt 0.9834 0.0351 0.0005
vt 0.9834 0.0351 0.9995
vt 0.9271 0.0351 0.9995
vt 0.9276 0.0102 0.0126
vt 0.9826 0.0102 0.0126
vt 0.9826 0.0102 0.9874
vt 0.9276 0.0102 0.9874
vt 0.3175 0.5229 0.0005
vt 0.0046 0.5229 0.0005
vt 0.0046 0.7777 0.0005
vt 0.3175 0.7777 0.0005
vt 0.0046 0.5229 0.9995
vt 0.3175 0.5229 0.9995
vt 0.3175 0.7777 0.9995
vt 0.0046 0.7777 0.9995
vt 0.3066 0.5220 0.9995
vt 0.5616 0.5220 0.9995
vt 0.5616 0.7763 0.9995
vt 0.3066 0.7763 0.9995
vt 0.5616 0.5220 0.0005
vt 0.3066 0.5220 0.0005
vt 0.3066 0.7763 0.0005
vt 0.5616 0.7763 0.0005
vt 0.7981 0.0133 0.0000
vt 0.9917 0.0133 0.0000
vt 0.7981 0.0133 0.0000
vt 0.9917 0.0133 0.0000
vt 0.7981 0.0133 0.0000
vt 0.9917 0.0133 0.0000
vt 0.7981 0.0133 0.0000
vt 0.9917 0.0133 0.0000
vt 0.7981 0.0133 0.0000
vt 0.9917 0.0133 0.0000
vt 0.7981 0.0133 0.0000
vt 0.9917 0.0133 0.0000
vt 0.9917 0.0133 0.0000
vt 0.9917 0.0133 0.0000
vt 0.7981 0.0133 0.0000
vt 0.7981 0.0133 0.0000
vt 0.9917 0.0133 0.0000
vt 0.7981 0.0133 0.0000
vt 0.0000 0.0254 0.0000
vt 1.0000 0.0254 0.0000
vt 0.0000 0.0254 0.0000
vt 1.0000 0.0254 0.0000
# 103 texture coords

g Box01
usemtl 01___Default
s 16
f 7/22/1 6/23/2 2/20/3 
f 2/20/4 4/21/5 7/22/6 
s 64
f 5/26/7 17/27/8 3/24/9 
f 3/24/10 1/25/11 5/26/12 
s off
f 8/28/13 9/29/14 7/22/15 
f 7/22/16 4/21/17 8/28/18 
f 9/29/19 8/28/20 3/24/21 
f 3/24/22 17/27/23 9/29/24 
f 12/30/25 10/31/26 1/25/27 
f 1/25/28 3/24/29 12/30/30 
f 11/32/31 13/33/32 4/21/33 
f 4/21/34 2/20/35 11/32/36 
f 14/34/37 12/30/38 3/24/39 
f 3/24/40 8/28/41 14/34/42 
f 13/33/43 14/34/44 8/28/45 
f 8/28/46 4/21/47 13/33/48 
s 1
f 10/5/49 12/2/50 11/3/51 
f 13/4/52 11/3/53 12/2/54 
s 2
f 14/6/55 13/4/56 12/2/57 
s off
f 15/51/58 18/52/59 5/47/60 
f 5/47/61 6/48/62 15/51/63 
f 16/62/64 15/63/65 6/59/66 
f 6/59/67 7/58/68 16/62/69 
f 18/64/70 19/65/71 17/61/72 
f 17/61/73 5/60/74 18/64/75 
f 7/49/76 9/50/77 17/55/78 
f 17/8/79 19/9/80 16/7/81 
f 16/7/82 7/1/83 17/8/84 
f 19/56/85 18/57/86 15/54/87 
f 15/54/88 16/53/89 19/56/90 
f 23/35/91 21/36/92 2/20/93 
f 2/20/94 6/23/95 23/35/96 
f 20/37/97 22/38/98 5/26/99 
f 5/26/100 1/25/101 20/37/102 
f 24/39/103 20/37/104 1/25/105 
f 1/25/106 10/31/107 24/39/108 
f 21/36/109 25/40/110 11/32/111 
f 11/32/112 2/20/113 21/36/114 
f 25/10/115 24/11/116 10/5/117 
f 10/5/118 11/3/119 25/10/120 
f 27/90/121 30/91/122 23/87/123 
f 23/87/124 22/86/125 27/90/126 
f 30/41/127 29/42/128 21/36/129 
f 21/36/130 23/35/131 30/41/132 
f 26/43/133 27/44/134 22/38/135 
f 22/38/136 20/37/137 26/43/138 
f 28/45/139 26/43/140 20/37/141 
f 20/37/142 24/39/143 28/45/144 
f 29/42/145 31/46/146 25/40/147 
f 25/40/148 21/36/149 29/42/150 
f 31/15/151 28/16/152 24/11/153 
f 24/11/154 25/10/155 31/15/156 
f 29/17/157 30/18/158 27/13/159 
f 27/13/160 26/12/161 29/17/162 
f 31/19/163 29/17/164 26/12/165 
f 26/12/166 28/14/167 31/19/168 
f 32/92/169 33/93/170 6/83/171 
f 6/83/172 5/82/173 32/92/174 
f 34/94/175 32/95/176 5/85/177 
f 5/85/178 22/89/179 34/94/180 
f 33/96/181 35/97/182 23/88/183 
f 23/88/184 6/84/185 33/96/186 
f 35/98/187 34/99/188 22/86/189 
f 22/86/190 23/87/191 35/98/192 
f 36/68/193 37/69/194 33/66/195 
f 33/66/196 32/67/197 36/68/198 
f 38/76/199 36/77/200 32/74/201 
f 32/74/202 34/75/203 38/76/204 
f 37/80/205 39/81/206 35/78/207 
f 35/78/208 33/79/209 37/80/210 
f 39/72/211 38/73/212 34/70/213 
f 34/70/214 35/71/215 39/72/216 
f 38/102/217 39/103/218 37/101/219 
f 37/101/220 36/100/221 38/102/222 
# 74 faces

